<svg width="24" height="25" viewBox="0 0 24 25" fill="none" xmlns="http://www.w3.org/2000/svg">
<g clip-path="url(#clip0_26_338)">
<path d="M6.20166 6.5H20.4017L18.6017 14.3H8.00086" stroke="#1E1E1E" stroke-width="1.2" stroke-linecap="round" stroke-linejoin="round"/>
<path d="M17.4012 20.3004C17.7194 20.3004 18.0247 20.174 18.2497 19.9489C18.4747 19.7239 18.6012 19.4187 18.6012 19.1004C18.6012 18.7821 18.4747 18.4769 18.2497 18.2519C18.0247 18.0268 17.7194 17.9004 17.4012 17.9004C17.0829 17.9004 16.7777 18.0268 16.5526 18.2519C16.3276 18.4769 16.2012 18.7821 16.2012 19.1004C16.2012 19.4187 16.3276 19.7239 16.5526 19.9489C16.7777 20.174 17.0829 20.3004 17.4012 20.3004Z" stroke="#1E1E1E" stroke-width="1.2" stroke-linecap="round" stroke-linejoin="round"/>
<path d="M9.60088 20.3004C9.91914 20.3004 10.2244 20.174 10.4494 19.9489C10.6745 19.7239 10.8009 19.4187 10.8009 19.1004C10.8009 18.7821 10.6745 18.4769 10.4494 18.2519C10.2244 18.0268 9.91914 17.9004 9.60088 17.9004C9.28262 17.9004 8.97739 18.0268 8.75235 18.2519C8.52731 18.4769 8.40088 18.7821 8.40088 19.1004C8.40088 19.4187 8.52731 19.7239 8.75235 19.9489C8.97739 20.174 9.28262 20.3004 9.60088 20.3004Z" stroke="#1E1E1E" stroke-width="1.2" stroke-linecap="round" stroke-linejoin="round"/>
<path d="M5.40107 4.09961H3.60107" stroke="#1E1E1E" stroke-width="1.2" stroke-linecap="round" stroke-linejoin="round"/>
<path d="M8.40088 16.6996L5.40088 4.09961" stroke="#1E1E1E" stroke-width="1.2" stroke-linecap="round" stroke-linejoin="round"/>
<path d="M18.6009 16.7002H8.40088" stroke="#1E1E1E" stroke-width="1.2" stroke-linecap="round" stroke-linejoin="round"/>
</g>
<defs>
<clipPath id="clip0_26_338">
<rect width="19.2" height="19.2" fill="white" transform="translate(2.40088 2.90039)"/>
</clipPath>
</defs>
</svg>
