<svg width="30" height="31" viewBox="0 0 30 31" fill="none" xmlns="http://www.w3.org/2000/svg">
<g clip-path="url(#clip0_12_3942)">
<rect x="0.000976562" y="0.5" width="30" height="30" rx="15" fill="#E7E7E7"/>
<g clip-path="url(#clip1_12_3942)">
<path d="M3.58496 32.9159C3.58496 31.4167 3.88024 29.9323 4.45394 28.5472C5.02765 27.1622 5.86854 25.9037 6.9286 24.8436C7.98866 23.7836 9.24714 22.9427 10.6322 22.369C12.0172 21.7953 13.5017 21.5 15.0009 21.5C16.5 21.5 17.9845 21.7953 19.3695 22.369C20.7546 22.9427 22.013 23.7836 23.0731 24.8436C24.1332 25.9037 24.9741 27.1622 25.5478 28.5472C26.1215 29.9323 26.4167 31.4167 26.4167 32.9159" fill="#B0B0B0"/>
<path d="M3.58496 32.9159C3.58496 31.4167 3.88024 29.9323 4.45394 28.5472C5.02765 27.1622 5.86854 25.9037 6.9286 24.8436C7.98866 23.7836 9.24714 22.9427 10.6322 22.369C12.0172 21.7953 13.5017 21.5 15.0009 21.5C16.5 21.5 17.9845 21.7953 19.3695 22.369C20.7546 22.9427 22.013 23.7836 23.0731 24.8436C24.1332 25.9037 24.9741 27.1622 25.5478 28.5472C26.1215 29.9323 26.4167 31.4167 26.4167 32.9159H15.0009H3.58496Z" stroke="#B0B0B0" stroke-width="1.25" stroke-linecap="round" stroke-linejoin="round"/>
<path d="M15.001 17.75C16.3271 17.75 17.5988 17.2232 18.5365 16.2855C19.4742 15.3479 20.001 14.0761 20.001 12.75C20.001 11.4239 19.4742 10.1521 18.5365 9.21447C17.5988 8.27678 16.3271 7.75 15.001 7.75C13.6749 7.75 12.4031 8.27678 11.4654 9.21447C10.5278 10.1521 10.001 11.4239 10.001 12.75C10.001 14.0761 10.5278 15.3479 11.4654 16.2855C12.4031 17.2232 13.6749 17.75 15.001 17.75Z" fill="#B0B0B0" stroke="#B0B0B0" stroke-width="1.25" stroke-linecap="round" stroke-linejoin="round"/>
</g>
</g>
<defs>
<clipPath id="clip0_12_3942">
<rect x="0.000976562" y="0.5" width="30" height="30" rx="15" fill="white"/>
</clipPath>
<clipPath id="clip1_12_3942">
<rect width="30" height="30" fill="white" transform="translate(1.00049 3)"/>
</clipPath>
</defs>
</svg>
